<svg width="195" height="196" viewBox="0 0 195 196" fill="none" xmlns="http://www.w3.org/2000/svg">
<path d="M190.904 19.1774C195.2 14.8817 195.2 7.91685 190.904 3.62109C186.609 -0.67468 179.644 -0.67468 175.348 3.62109L190.904 19.1774ZM3.62112 175.348C-0.67465 179.644 -0.67465 186.609 3.62112 190.904C7.91688 195.2 14.8817 195.2 19.1775 190.904L3.62112 175.348ZM19.1775 4.54936C14.8817 0.253592 7.91689 0.253592 3.62112 4.54936C-0.674649 8.84513 -0.674649 15.8099 3.62112 20.1057L19.1775 4.54936ZM175.348 191.833C179.644 196.128 186.609 196.128 190.904 191.833C195.2 187.537 195.2 180.572 190.904 176.276L175.348 191.833ZM175.348 3.62109L3.62112 175.348L19.1775 190.904L190.904 19.1774L175.348 3.62109ZM3.62112 20.1057L175.348 191.833L190.904 176.276L19.1775 4.54936L3.62112 20.1057Z" fill="#242424"/>
</svg>
